<?xml version="1.0"?>
<svg xmlns="http://www.w3.org/2000/svg" xmlns:xlink="http://www.w3.org/1999/xlink" xmlns:svgjs="http://svgjs.com/svgjs" version="1.1" width="512" height="512" x="0" y="0" viewBox="0 0 512 512" style="enable-background:new 0 0 512 512" xml:space="preserve" class=""><g>
<g xmlns="http://www.w3.org/2000/svg">
	<g>
		<g>
			<path d="M32,426.663c-17.643,0-32,14.357-32,32s14.357,32,32,32s32-14.357,32-32S49.643,426.663,32,426.663z M32,469.33     c-5.888,0-10.667-4.779-10.667-10.667S26.112,447.996,32,447.996s10.667,4.779,10.667,10.667S37.888,469.33,32,469.33z" fill="#fbb016" data-original="#000000" style=""/>
			<path d="M256,469.33c35.285,0,64-28.715,64-64c0-17.515-7.36-34.304-20.309-46.485C235.392,191.698,318.08,17.042,318.933,15.292     c2.411-4.992,0.619-10.987-4.16-13.824c-4.757-2.773-10.901-1.515-14.123,2.987C296.213,10.663,192,159.399,192,405.33     C192,440.615,220.715,469.33,256,469.33z M261.205,132.903c-11.627,66.517-13.696,151.531,19.52,236.117     c0.64,1.6,1.643,3.029,2.965,4.16c9.515,8.192,14.976,19.925,14.976,32.149c0,23.531-19.136,42.667-42.667,42.667     s-42.667-19.136-42.667-42.667C213.333,292.242,236.608,199.42,261.205,132.903z" fill="#fbb016" data-original="#000000" style=""/>
			<path d="M480,405.33c5.888,0,10.667-4.779,10.667-10.667s-4.779-10.667-10.667-10.667H350.933c-3.029,0-5.931,1.28-7.957,3.541     c-2.027,2.261-3.008,5.291-2.667,8.299l0.448,3.392c0.277,2.005,0.576,4.011,0.576,6.101c0,47.061-38.272,85.333-85.333,85.333     s-85.333-38.272-85.333-85.333c0-2.027,0.299-3.968,0.555-5.909l0.427-3.349c0.107-0.832,0.043-1.899-0.064-2.731     c-0.661-5.333-5.205-9.344-10.581-9.344H10.667C4.779,383.996,0,388.775,0,394.663s4.779,10.667,10.667,10.667h138.667     c0,58.816,47.851,106.667,106.667,106.667s106.667-47.851,106.667-106.667H480z" fill="#fbb016" data-original="#000000" style=""/>
			<path d="M480,447.996c-17.643,0-32,14.357-32,32c0,17.643,14.357,32,32,32c17.643,0,32-14.357,32-32     C512,462.354,497.643,447.996,480,447.996z M480,490.663c-5.888,0-10.667-4.779-10.667-10.667     c0-5.888,4.779-10.667,10.667-10.667c5.888,0,10.667,4.779,10.667,10.667C490.667,485.884,485.888,490.663,480,490.663z" fill="#fbb016" data-original="#000000" style=""/>
			<path d="M117.333,447.996c-17.643,0-32,14.357-32,32c0,17.643,14.357,32,32,32c17.643,0,32-14.357,32-32     C149.333,462.354,134.976,447.996,117.333,447.996z M117.333,490.663c-5.888,0-10.667-4.779-10.667-10.667     c0-5.888,4.779-10.667,10.667-10.667S128,474.108,128,479.996C128,485.884,123.221,490.663,117.333,490.663z" fill="#fbb016" data-original="#000000" style=""/>
			<path d="M394.667,426.663c-17.643,0-32,14.357-32,32s14.357,32,32,32s32-14.357,32-32S412.309,426.663,394.667,426.663z      M394.667,469.33c-5.888,0-10.667-4.779-10.667-10.667s4.779-10.667,10.667-10.667s10.667,4.779,10.667,10.667     S400.555,469.33,394.667,469.33z" fill="#fbb016" data-original="#000000" style=""/>
		</g>
	</g>
</g>
<g xmlns="http://www.w3.org/2000/svg">
</g>
<g xmlns="http://www.w3.org/2000/svg">
</g>
<g xmlns="http://www.w3.org/2000/svg">
</g>
<g xmlns="http://www.w3.org/2000/svg">
</g>
<g xmlns="http://www.w3.org/2000/svg">
</g>
<g xmlns="http://www.w3.org/2000/svg">
</g>
<g xmlns="http://www.w3.org/2000/svg">
</g>
<g xmlns="http://www.w3.org/2000/svg">
</g>
<g xmlns="http://www.w3.org/2000/svg">
</g>
<g xmlns="http://www.w3.org/2000/svg">
</g>
<g xmlns="http://www.w3.org/2000/svg">
</g>
<g xmlns="http://www.w3.org/2000/svg">
</g>
<g xmlns="http://www.w3.org/2000/svg">
</g>
<g xmlns="http://www.w3.org/2000/svg">
</g>
<g xmlns="http://www.w3.org/2000/svg">
</g>
</g></svg>
