<?xml version="1.0"?>
<svg xmlns="http://www.w3.org/2000/svg" xmlns:xlink="http://www.w3.org/1999/xlink" xmlns:svgjs="http://svgjs.com/svgjs" version="1.1" width="512" height="512" x="0" y="0" viewBox="0 0 300 300" style="enable-background:new 0 0 512 512" xml:space="preserve" class=""><g><g xmlns="http://www.w3.org/2000/svg"><circle cx="40.912" cy="177.604" r="4" fill="#fbb016" data-original="#000000" style="" class=""/><path d="m39.92 56.877 3.068-3.068 3.068 3.068c.781.781 1.805 1.172 2.828 1.172s2.047-.391 2.828-1.172c1.562-1.562 1.562-4.094 0-5.656l-3.068-3.068 3.068-3.068c1.562-1.562 1.562-4.094 0-5.656s-4.094-1.562-5.656 0l-3.068 3.068-3.068-3.068c-1.562-1.562-4.094-1.562-5.656 0s-1.562 4.094 0 5.656l3.068 3.068-3.068 3.068c-1.562 1.562-1.562 4.094 0 5.656.781.781 1.805 1.172 2.828 1.172s2.047-.391 2.828-1.172z" fill="#fbb016" data-original="#000000" style="" class=""/><path d="m48.912 201.604c-6.617 0-12 5.383-12 12s5.383 12 12 12 12-5.383 12-12-5.383-12-12-12zm0 16c-2.207 0-4-1.795-4-4s1.793-4 4-4 4 1.795 4 4-1.793 4-4 4z" fill="#fbb016" data-original="#000000" style="" class=""/><path d="m256.428 137.91c-3.977-5.711-3.477-9.615-2.477-17.395.633-4.953 1.426-11.121 1.145-19.449-.332-10.021-4.238-18.453-7.602-24.68-.434-.801-.985-1.555-1.466-2.34 2.69-1.391 5.019-3.302 6.314-5.996 2.305-4.793.855-10.496-4.305-16.945-10.254-12.812-18.73-11.391-26.199-10.135-5.711.951-11.105 1.859-18.867-2.797-19.134-11.479-36.176-20.367-50.009-13.206-.009.004-.018.002-.027.007-1.689.805-3.187 1.789-4.548 2.99-2.789 2.173-4.423 4.08-5.639 5.543-2.34 2.812-3.406 4.096-17.836 4.096-11.883 0-19.496 2.328-23.957 7.328-5.008 5.609-4.891 13.467-4.016 21.125 1.379 12.133.621 12.953-9.836 19.945-7.762 5.189-12.734 13.871-13.305 23.225-.547 9.031 2.992 17.529 9.711 23.314 3.547 3.057 5.473 5.951 5.562 8.371.07 1.865-.91 3.783-2.988 5.863-7.777 7.775-11.695 16.887-10.48 24.375.664 4.105 3.203 9.873 11.52 14.031 5.203 2.602 8.125 5.672 8.688 9.127.598 3.686-1.488 8.23-5.727 12.467-7.613 7.613-10.805 13.814-9.75 18.953.484 2.361 2.109 5.594 7.094 7.59 11.035 4.414 11.301 11.406 11.586 18.811.156 4.088.32 8.316 2.57 11.693 8.93 13.395 37.996 13.781 41.281 13.781 7.43 0 13.859-4.279 16.781-11.168 2.844-6.699 1.5-14.076-3.609-19.361-.008-.01-.285-.289-.297-.299-6.203-6.205-4.309-10.201-1.68-15.73 1.402-2.953 2.852-6.006 2.852-9.441 0-4.699-3.707-8.545-7.293-12.262-5.914-6.137-8.211-9.27-5.379-13.52 8.352-12.529 17.82-26.729 7.5-37.047-2.34-2.34-2.34-2.34.039-6.051.8-1.248 1.724-2.724 2.636-4.466 1.956 1.418 3.758 2.537 5.305 3.473 1.547.932 2.879 1.738 3.75 2.521.005.004.011.007.016.012-1.589 2.035-2.575 4.562-2.575 7.338v12c0 6.617 5.383 12 12 12s12-5.383 12-12v-12c0-4.606-2.636-8.566-6.453-10.577.571-1.193.961-2.483.961-3.899 0-2.209-1.789-4-4-4s-4 1.791-4 4c0 .25 0 .668-.707 1.029-.82.416-1.695.289-1.891.152-1.438-1.293-3.148-2.328-4.961-3.424-2.375-1.436-5.066-3.062-8.051-5.744-3.84-3.455-2.102-10.832.625-14.826.934-1.363 1.723-1.592 2.305-1.639 2.691-.252 6.422 2.865 7.871 4.387 1.512 1.605 4.039 1.68 5.648.166 1.609-1.516 1.684-4.047.172-5.654-.106-.114-.377-.385-.725-.718 6.54-3.622 14.003-4.928 20.236-3.372 16.852 4.209 34.227-28.764 39.555-39.961 1.787-.103 4.193-.366 6.735-.876.784 1.164 1.567 2.333 2.222 3.544 3.133 5.793 6.371 12.836 6.648 21.141.254 7.686-.457 13.254-1.09 18.168-.285 2.225-.541 4.32-.668 6.361l-6.312-.919c-2.199-.314-4.219 1.197-4.535 3.383-.32 2.186 1.195 4.217 3.379 4.535l7.457 1.086c.194.027.389.041.579.041.652 2.714 1.857 5.489 3.952 8.496 5.496 7.893 8.203 14.355 8.887 17.309-2.316.471-6.316.988-9.672 1.285-1.996.176-3.555 1.803-3.645 3.805-.012.283-.297 6.721-.027 10.898-.578.324-1.762.668-2.699.762-1.625.148-2.996 1.27-3.469 2.834-.469 1.562.059 3.254 1.332 4.273 1.098.879 2.305 2.18 2.844 3.02-.199.26-.426.551-.68.873-3.324 4.268-10.199 13.094-10.773 23.094-3.785 2.223-22.656-1.771-29.859-3.299-8.961-1.898-11.898-2.475-13.992-1.828-4.188 1.289-6.906 6.889-11.039 35.232-.32 2.186 1.195 4.215 3.379 4.535.195.027.391.041.582.041 1.953 0 3.664-1.434 3.953-3.424 2.883-19.752 4.863-26.396 5.973-28.566 2.016.254 6.094 1.117 9.484 1.836 17.25 3.658 30.895 6.098 36.66 1.633 1.734-1.35 2.742-3.293 2.836-5.475.32-7.584 6.258-15.201 9.109-18.863.703-.902 1.258-1.625 1.598-2.131 1.84-2.758 1-5.654-.535-8.045 2.156-1.48 3.539-3.684 3.309-6.621-.156-1.943-.145-4.758-.098-6.973 3.762-.43 8.598-1.15 10.645-2.172 1.355-.68 2.328-1.926 2.73-3.51 1.427-5.596-4.639-17.016-10.268-25.094zm-79.516 35.694c0 2.205-1.793 4-4 4s-4-1.795-4-4v-12c0-2.205 1.793-4 4-4s4 1.795 4 4zm51.996-104c-1.566.004-2.988.92-3.637 2.346-7.508 16.518-22.562 40.006-31.391 37.773-9.396-2.348-20.334-.006-29.414 6.222-1.961-.855-4.114-1.435-6.34-1.246-2.316.18-5.637 1.211-8.297 5.102-4.461 6.535-6.144 16.134-1.572 22.761-1.009 2.337-2.171 4.216-3.214 5.847-2.609 4.068-5.852 9.133 1.039 16.023 5.285 5.285.066 14.104-8.5 26.953-6.699 10.051 1.109 18.15 6.277 23.51 2.133 2.211 5.051 5.238 5.051 6.709 0 1.631-1.012 3.758-2.078 6.01-2.766 5.822-6.945 14.623 3.25 24.818.008.008.301.303.309.311 2.773 2.871 3.48 6.82 1.891 10.568-1.289 3.043-4.441 6.293-9.418 6.293-7.738-.008-29.051-1.857-34.625-10.219-1-1.5-1.113-4.445-1.23-7.562-.301-7.801-.754-19.588-16.613-25.932-.926-.371-2.062-.979-2.227-1.77-.117-.572-.301-3.818 7.57-11.689 6.168-6.166 8.996-13.059 7.965-19.404-.996-6.139-5.371-11.186-13.004-15.002-4.305-2.152-6.66-4.82-7.203-8.156-.945-5.836 3.637-12.834 8.242-17.438 3.688-3.688 5.48-7.662 5.324-11.816-.18-4.836-2.906-9.461-8.336-14.137-4.809-4.141-7.34-10.252-6.941-16.766.418-6.875 4.066-13.252 9.762-17.061 12.402-8.295 15.121-11.826 13.336-27.502-.762-6.713-.711-11.814 2.039-14.893 2.758-3.088 8.809-4.654 17.988-4.654 6.922 0 11.489-.339 14.789-1.093-.777 2.764-1.518 5.874-2.25 9.411-2.625 12.684-10.898 11.887-11.891 11.734-2.164-.354-4.211 1.096-4.59 3.258-.379 2.176 1.074 4.248 3.25 4.629.711.125 1.516.197 2.383.197 6.188 0 15.676-3.676 18.684-18.197 2.725-13.17 5.219-18.693 8.331-21.507.477-.362.936-.719 1.513-1.104 8.987-5.986 21.509-1.01 41.109 10.553-18.945 4.332-29.607 14.74-30.156 15.291-1.559 1.559-1.559 4.08-.004 5.645.781.785 1.809 1.178 2.836 1.178 1.016 0 2.035-.387 2.816-1.158.089-.087 5.557-5.347 15.422-9.581l5.983-2.212c5.441-1.72 11.805-2.964 19.061-3.039 4.14.373 7.753-.213 10.96-.747 6.824-1.152 11.324-1.891 18.629 7.24 2.945 3.682 4.164 6.771 3.344 8.48-1.632 3.407-10.644 5.011-16.222 5.023z" fill="#fbb016" data-original="#000000" style="" class=""/><path d="m167.74 130.776c-1.562-1.562-4.094-1.562-5.656 0s-1.562 4.094 0 5.656l4 4c.781.781 1.805 1.172 2.828 1.172s2.047-.391 2.828-1.172c1.562-1.562 1.562-4.094 0-5.656z" fill="#fbb016" data-original="#000000" style="" class=""/><path d="m133.334 219.815c-.133.27-3.301 6.668-4.383 14.223-1.551 10.869 2.062 19.088 10.172 23.145.574.287 1.184.422 1.785.422 1.469 0 2.879-.809 3.582-2.211.988-1.977.188-4.379-1.789-5.367-12.223-6.111-2.309-26.434-2.207-26.639.98-1.977.176-4.377-1.801-5.361-1.972-.984-4.371-.187-5.359 1.788z" fill="#fbb016" data-original="#000000" style="" class=""/><path d="m208.912 73.604c-2.211 0-4 1.791-4 4 0 .652-.184 16-16 16-21.41 0-30.453 8.797-30.828 9.172-1.551 1.549-1.547 4.037-.016 5.605.777.797 1.816 1.197 2.855 1.197 1 0 2.004-.371 2.781-1.113.074-.068 7.41-6.861 25.207-6.861 18.984 0 24-15.699 24-24 .001-2.209-1.788-4-3.999-4z" fill="#fbb016" data-original="#000000" style="" class=""/><path d="m132.912 93.604c-1.137 0-11.258.533-15.879 19.029-1.688 6.744-1.422 11.656-1.227 15.242.221 4.073.278 5.921-2.351 8.295-1.93-4.372-5.168-8.847-9.716-13.395-1.562-1.562-4.094-1.562-5.656 0s-1.562 4.094 0 5.656c7.074 7.076 10.223 13.457 9.355 18.969-1.07 6.797-8.16 10.545-8.332 10.633-1.965.992-2.758 3.389-1.773 5.359.703 1.402 2.113 2.211 3.582 2.211.602 0 1.211-.135 1.785-.422.441-.223 10.859-5.545 12.625-16.445.218-1.345.244-2.71.182-4.083 8.25-5.641 8.664-10.294 8.287-17.212-.184-3.42-.395-7.295.996-12.867 2.965-11.852 7.941-12.914 8.301-12.975 2.125-.096 3.82-1.848 3.82-3.996.001-2.208-1.788-3.999-3.999-3.999z" fill="#fbb016" data-original="#000000" style="" class=""/></g></g></svg>
