<?xml version="1.0"?>
<svg xmlns="http://www.w3.org/2000/svg" xmlns:xlink="http://www.w3.org/1999/xlink" xmlns:svgjs="http://svgjs.com/svgjs" version="1.1" width="512" height="512" x="0" y="0" viewBox="0 0 480.005 480.005" style="enable-background:new 0 0 512 512" xml:space="preserve" class=""><g><path xmlns="http://www.w3.org/2000/svg" d="m439.982 471.435-7.979-111.715v-111.715c-.035-30.914-25.086-55.965-56-56h-8.05c.018-1.528.05-3.054.05-4.584 0-13.149-.663-26.45-1.972-39.532l-7.7-77c-4.327-43.259-42.903-74.82-86.162-70.493-28.629 2.864-53.415 21.118-64.642 47.609h-47.524v-24c0-4.418-3.582-8-8-8h-56c-4.418 0-8 3.582-8 8v16h-16c-17.673 0-32 14.327-32 32s14.327 32 32 32h16v16c0 4.418 3.582 8 8 8h56c4.418 0 8-3.582 8-8v-24h39.16l-5.188 51.884c-1.309 13.082-1.972 26.383-1.972 39.533 0 1.529.032 3.055.05 4.583h-8.05c-30.914.035-55.965 25.086-56 56v112c-.01 17.662 14.3 31.988 31.962 31.998 8.59.005 16.82-3.446 22.838-9.575l32.159-14.618c-1.311 5.757-4.001 11.108-7.839 15.595l-11.163 13.023c-18.035 21.052-27.95 47.857-27.957 75.577 0 4.418 3.582 8 8 8h256c4.418 0 8-3.582 7.999-8.001 0-.189-.006-.379-.02-.569zm-70.788-80.8 1.154 13.837c-1.975-2.763-4.075-5.445-6.3-8.045l-11.487-13.4c-8.429-9.833-10.84-23.473-6.293-35.6l19.279-51.422h2.456v65.985c0 9.515.4 19.155 1.191 28.646zm-297.191-302.63c-8.837 0-16-7.163-16-16s7.163-16 16-16h16v32zm72 24h-40v-80h40zm16-48h94.7l17.3 5.766v4.468l-17.3 5.766h-94.7zm96 32c.86 0 1.714-.139 2.53-.411l24-8c3.267-1.089 5.47-4.146 5.47-7.589v-16c0-3.443-2.203-6.5-5.47-7.589l-24-8c-.816-.272-1.67-.411-2.53-.411h-30.683c16.967-30.2 55.204-40.927 85.404-23.959 17.826 10.016 29.652 28.092 31.687 48.437l7.7 77c1.255 12.553 1.892 25.322 1.892 37.939.023 44.441-7.747 88.542-22.957 130.3l-6.643 18.283h-84.8l-6.647-18.279c-15.209-41.759-22.977-85.862-22.953-130.305 0-12.62.637-25.385 1.892-37.94l5.347-53.476zm-96 280c-8.832-.01-15.99-7.168-16-16v-112c.025-22.081 17.919-39.975 40-40h8.551c1.253 24.489 4.781 48.808 10.539 72.644-.977-.419-2.027-.638-3.09-.644h-16c-4.418 0-8 3.582-8 8v72c-.01 8.833-7.168 15.99-16 16zm41.842-59.807-9.842 4.474v-24.667h2.418zm-9.842 43.807v-21.758l15.378-6.99 5.808 15.8c.048.131.1.261.155.39.423.988.795 1.996 1.116 3.022l-22.474 10.216c.005-.23.017-.454.017-.68zm16.1 46.836 11.164-13.024c7.952-9.293 12.408-21.071 12.6-33.3.04-2.872-.181-5.741-.661-8.573.262.026.521.061.788.061h40v56h16v-56h40c.212 0 .417-.032.626-.049-2.345 14.886 1.962 30.052 11.781 41.484l11.488 13.4c4.536 5.293 8.507 11.046 11.847 17.165h-167.457c3.334-6.118 7.299-11.87 11.829-17.164zm-23.78 57.164c.662-8.172 2.325-16.233 4.951-24h181.46c1.67 4.935 2.952 9.993 3.835 15.128l.74 8.872zm207.4 0c-.252-3.647-.675-7.267-1.268-10.86l-5.315-63.84c-.754-9.052-1.137-18.243-1.137-27.318v-73.982c0-4.418-3.582-8-8-8h-16c-1.063.006-2.113.225-3.09.644 5.758-23.836 9.286-48.155 10.539-72.644h8.551c22.081.025 39.975 17.919 40 40v112c0 .19.007.38.021.57l7.387 103.43z" fill="#fbb016" data-original="#000000" style="" class=""/><path xmlns="http://www.w3.org/2000/svg" d="m280.003 192.005c17.665-.02 31.98-14.335 32-32-.026-12.113-3.953-23.895-11.2-33.6l-14.4-19.2c-2.651-3.535-7.665-4.251-11.2-1.6-.606.455-1.145.994-1.6 1.6l-14.4 19.2c-7.247 9.705-11.174 21.487-11.2 33.6.02 17.665 14.335 31.98 32 32zm-8-56 8-10.667 8 10.667c5.177 6.932 7.982 15.348 8 24 0 8.837-7.163 16-16 16s-16-7.163-16-16c.018-8.652 2.823-17.067 8-24z" fill="#fbb016" data-original="#000000" style="" class=""/></g></svg>
