<?xml version="1.0"?>
<svg xmlns="http://www.w3.org/2000/svg" xmlns:xlink="http://www.w3.org/1999/xlink" xmlns:svgjs="http://svgjs.com/svgjs" version="1.1" width="512" height="512" x="0" y="0" viewBox="0 0 512.002 512.002" style="enable-background:new 0 0 512 512" xml:space="preserve" class=""><g><g xmlns="http://www.w3.org/2000/svg"><path d="m7.501 512c-4.142 0-7.5-3.357-7.5-7.5v-131.029c0-4.143 3.358-7.5 7.5-7.5h32.146c4.142 0 7.5 3.357 7.5 7.5s-3.358 7.5-7.5 7.5h-24.646v123.529c0 4.143-3.358 7.5-7.5 7.5zm273.99-268.258c-1.658 0-3.326-.547-4.715-1.671-3.219-2.606-3.716-7.329-1.11-10.548 6.771-8.363 8.734-16.265 9.264-19.272.719-4.08 4.607-6.795 8.688-6.086 4.079.719 6.804 4.608 6.085 8.688-.91 5.164-3.728 15.423-12.378 26.108-1.482 1.831-3.649 2.781-5.834 2.781zm-167.355-23.398c-4.142 0-7.5-3.357-7.5-7.5v-107.58c0-4.143 3.358-7.5 7.5-7.5s7.5 3.357 7.5 7.5v107.58c0 4.142-3.358 7.5-7.5 7.5zm34.325-35.218c-4.142 0-7.5-3.357-7.5-7.5v-72.362c0-4.143 3.358-7.5 7.5-7.5s7.5 3.357 7.5 7.5v72.362c0 4.143-3.358 7.5-7.5 7.5zm350.737 324.678-67.615-67.616c-20.488-20.489-53.752-20.609-74.394-.365-4.371 5.804-9.372 11.624-14.969 17.396-21.46 22.129-49.322 41.164-76.439 52.227-.928.378-1.887.558-2.831.558-2.958 0-5.761-1.762-6.947-4.669-1.564-3.836.276-8.213 4.111-9.777 48.932-19.961 103.649-70.857 103.638-109.097-.001-4.129-3.366-7.488-7.5-7.488h-286.605c-4.142 0-7.5-3.357-7.5-7.5s3.358-7.5 7.5-7.5h36.989v-41.326c0-28.895 4.868-54.938 14.468-77.408 8.903-20.836 21.632-38.159 37.835-51.487 28.125-23.134 64.984-32.326 101.127-25.222 2.567.505 4.686 2.312 5.591 4.767s.464 5.204-1.162 7.254c-7.261 9.152-11.751 31.708-9.934 42.514.688 4.084-2.067 7.953-6.151 8.641-4.083.68-7.954-2.066-8.641-6.152-1.893-11.25.782-29.978 6.884-43.85-28.252-2.771-56.259 5.598-78.186 23.634-21.365 17.573-46.832 52.19-46.832 117.311v41.326h30v-41.326c0-4.143 3.358-7.5 7.5-7.5s7.5 3.357 7.5 7.5v41.326h46.068c-3.793-5.482-5.829-11.926-5.828-18.679.001-12.153 6.695-22.823 16.702-28.744-23.323-16.189-37.494-34.373-43.985-56.869-5.357 8.757-8.991 19.83-11.021 33.493-.608 4.097-4.422 6.911-8.521 6.317-4.097-.608-6.925-4.424-6.316-8.521 3.304-22.25 10.572-38.951 22.202-50.992-.39-4.138-.581-8.407-.581-12.826 0-4.143 3.358-7.5 7.5-7.5s7.5 3.357 7.5 7.5c0 18.869 3.666 33.694 11.536 46.658 8.601 14.167 22.847 26.864 43.552 38.818 2.94 1.697 4.373 5.157 3.494 8.437-.878 3.278-3.85 5.559-7.244 5.559-.001 0-.002 0-.004 0-10.925 0-19.813 8.375-19.815 18.672 0 4.927 2.019 9.577 5.688 13.094 3.756 3.6 8.772 5.582 14.125 5.583h30.11c22.126-21.302 49.592-35.828 79.589-42.066 15.387-3.199 31.044-4.154 46.512-2.902 12.27-23.802 23.194-53.633 19.667-66.637-2.524-9.31-12.907-18.357-35.003-29.663-3.692 9.978-10.715 20.811-19.604 26.291-3.524 2.175-8.146 1.079-10.32-2.447-2.174-3.525-1.079-8.146 2.447-10.32 5.957-3.674 11.372-12.448 13.898-20.087-6.178-2.842-13.024-5.83-20.593-8.999-2.525-1.057-4.273-3.405-4.562-6.127-2.074-19.555-7.28-27.083-9.476-27.666-3.097-.668-14.313 4.441-20.339 7.192-9.481 4.329-18.437 8.418-25.574 8.418-4.142 0-7.5-3.357-7.5-7.5s3.358-7.5 7.5-7.5c3.875 0 12.452-3.916 19.344-7.063 11.977-5.468 22.319-10.194 30.414-8.045 12.598 3.34 17.852 20.624 20.006 36.149 50.033 21.233 68.816 34.918 73.839 53.441 2.99 11.023.378 26.985-7.984 48.796-3.521 9.185-7.452 17.709-10.437 23.815 9.318 1.679 18.509 4.174 27.473 7.479 3.886 1.433 5.875 5.745 4.443 9.631-1.433 3.887-5.742 5.877-9.631 4.443-26.044-9.6-54.214-11.682-81.466-6.013-21.803 4.534-42.137 13.896-59.689 27.38h61.499c12.403 0 22.497 10.086 22.5 22.484.002 8.403-2.01 17.399-5.89 26.698 23.578-7.767 50.606-2.291 69.327 16.428l67.615 67.615v.001c2.929 2.929 2.929 7.678 0 10.607s-7.675 2.925-10.604-.004zm10.606-131.638c2.929 2.929 2.929 7.678 0 10.607s-7.677 2.929-10.607 0v.001l-10-9.999c-8.74-8.74-18.504-16.345-29.02-22.601-3.56-2.117-4.729-6.72-2.611-10.28 2.119-3.56 6.721-4.729 10.28-2.61 11.586 6.892 22.338 15.265 31.957 24.885zm-327.018-213.833c-4.142 0-7.5-3.357-7.5-7.5v-51.569c0-4.143 3.358-7.5 7.5-7.5s7.5 3.357 7.5 7.5v51.569c0 4.143-3.358 7.5-7.5 7.5zm-.424-81.569h-68.226c-12.407 0-22.5-10.094-22.5-22.5v-6.709c0-4.717-3.837-8.555-8.555-8.555h-75.58c-4.142 0-7.5-3.357-7.5-7.5s3.358-7.5 7.5-7.5h75.581c12.988 0 23.555 10.566 23.555 23.555v6.709c0 4.136 3.364 7.5 7.5 7.5h68.226c4.135 0 7.5-3.364 7.5-7.5 0-24.959-20.305-45.264-45.263-45.264h-137.099c-4.142 0-7.5-3.357-7.5-7.5s3.358-7.5 7.5-7.5h137.098c33.229 0 60.263 27.034 60.263 60.264 0 12.406-10.094 22.5-22.5 22.5z" fill="#fbb016" data-original="#000000" style="" class=""/></g></g></svg>
